<?xml version="1.0" encoding="utf-8"?>
<!-- Generator: Adobe Illustrator 25.2.1, SVG Export Plug-In . SVG Version: 6.00 Build 0)  -->
<svg version="1.1" id="Capa_1" xmlns="http://www.w3.org/2000/svg" xmlns:xlink="http://www.w3.org/1999/xlink" x="0px" y="0px"
	 viewBox="0 0 222 105.4" style="enable-background:new 0 0 222 105.4;" xml:space="preserve">
<style type="text/css">
	.st0{fill:#FFFFFF;}
	.st1{clip-path:url(#SVGID_2_);}
	.st2{clip-path:url(#SVGID_4_);}
	.st3{clip-path:url(#SVGID_6_);}
	.st4{clip-path:url(#SVGID_8_);}
</style>
<g id="Capa_2_1_">
	<g id="Capa_1-2">
		<path class="st0" d="M27.2,21.4v9.2h26.8c1.8,0,3.7,0.4,5.3,1.3c3,1.6,4.4,4.2,4.4,8.1c0,4.8-2,8-5.9,9.8
			c-1.1,0.5-2.4,0.7-3.6,0.7H27.2v9.2h14.5c2.5,0,4.8,0,7,5.3c3.6,8.7,8.8,13.4,15.8,14.3c1.2,0.1,2.4,0.2,3.6,0.2
			c2,0,3.7-0.2,4-0.2l0.8-0.1v-0.8l-0.1-7.2v-0.9l-0.9,0.1c-0.2,0-0.5,0-0.9,0c-1.7,0-3.5-0.1-5.2-0.3c-2.2-0.2-5.6-1.5-8.6-8.7
			c-0.3-0.7-0.6-1.3-0.9-2c1.8-0.2,3.5-0.6,5.1-1.3c4.3-1.8,11.4-6.7,11.4-18.1c0-7.2-3.2-12.9-9.1-16.1c-3-1.6-6.3-2.4-9.7-2.4
			H27.2z"/>
		<g>
			<defs>
				<path id="SVGID_1_" d="M27.2,21.4v9.2h26.8c1.8,0,3.7,0.4,5.3,1.3c3,1.6,4.4,4.2,4.4,8.1c0,4.8-2,8-5.9,9.8
					c-1.1,0.5-2.4,0.7-3.6,0.7H27.2v9.2h14.5c2.5,0,4.8,0,7,5.3c3.6,8.7,8.8,13.4,15.8,14.3c1.2,0.1,2.4,0.2,3.6,0.2
					c2,0,3.7-0.2,4-0.2l0.8-0.1v-0.8l-0.1-7.2v-0.9l-0.9,0.1c-0.2,0-0.5,0-0.9,0c-1.7,0-3.5-0.1-5.2-0.3c-2.2-0.2-5.6-1.5-8.6-8.7
					c-0.3-0.7-0.6-1.3-0.9-2c1.8-0.2,3.5-0.6,5.1-1.3c4.3-1.8,11.4-6.7,11.4-18.1c0-7.2-3.2-12.9-9.1-16.1c-3-1.6-6.3-2.4-9.7-2.4
					H27.2z"/>
			</defs>
			<use xlink:href="#SVGID_1_"  style="overflow:visible;fill:#FFFFFF;"/>
			<clipPath id="SVGID_2_">
				<use xlink:href="#SVGID_1_"  style="overflow:visible;"/>
			</clipPath>
			<g class="st1">
				
					<rect x="14.7" y="13.5" transform="matrix(0.8226 -0.5686 0.5686 0.8226 -19.8064 37.4023)" class="st0" width="70.7" height="73.8"/>
			</g>
		</g>
		<path class="st0" d="M92.2,64.9L92.2,64.9c-6.6-5.6-7.4-15.4-1.9-22c0.6-0.7,1.2-1.3,1.9-1.9c3.6-3.3,8.4-5.1,13.3-5
			c4.9-0.1,9.7,1.7,13.4,5c6.6,5.6,7.4,15.4,1.9,22c-0.6,0.7-1.2,1.3-1.9,1.9c-3.7,3.3-8.4,5.1-13.4,5C100.6,70,95.8,68.2,92.2,64.9
			 M85.6,34.4c-5.3,4.7-8.3,11.4-8.3,18.5c0,7.1,3,13.8,8.3,18.5c5.4,5,12.5,7.8,19.8,7.6c6.9,0.1,13.7-2.3,18.9-6.8v6.3h9.2V28
			h-9.2v5.6c-5.3-4.5-12-6.9-18.9-6.8C98.1,26.6,91,29.4,85.6,34.4"/>
		<g>
			<defs>
				<path id="SVGID_3_" d="M92.2,64.9L92.2,64.9c-6.6-5.6-7.4-15.4-1.9-22c0.6-0.7,1.2-1.3,1.9-1.9c3.6-3.3,8.4-5.1,13.3-5
					c4.9-0.1,9.7,1.7,13.4,5c6.6,5.6,7.4,15.4,1.9,22c-0.6,0.7-1.2,1.3-1.9,1.9c-3.7,3.3-8.4,5.1-13.4,5
					C100.6,70,95.8,68.2,92.2,64.9 M85.6,34.4c-5.3,4.7-8.3,11.4-8.3,18.5c0,7.1,3,13.8,8.3,18.5c5.4,5,12.5,7.8,19.8,7.6
					c6.9,0.1,13.7-2.3,18.9-6.8v6.3h9.2V28h-9.2v5.6c-5.3-4.5-12-6.9-18.9-6.8C98.1,26.6,91,29.4,85.6,34.4"/>
			</defs>
			<use xlink:href="#SVGID_3_"  style="overflow:visible;fill:#FFFFFF;"/>
			<clipPath id="SVGID_4_">
				<use xlink:href="#SVGID_3_"  style="overflow:visible;"/>
			</clipPath>
			<g class="st2">
				
					<rect x="67.5" y="15.4" transform="matrix(0.8226 -0.5686 0.5686 0.8226 -11.3873 69.3524)" class="st0" width="76" height="75"/>
			</g>
		</g>
		<path class="st0" d="M147.5,30.5l-0.2,0.1c-3.4,2.2-5.7,5.7-6.1,9.8c-0.4,3.6,1,7,4.1,10.2l0.2,0.2c2.9,2.8,8,5,15,6.5h0.3
			c5.2,1.1,8.9,2.5,10.8,4.2c0.6,0.8,1,1.8,0.9,2.8c0,1.3-0.5,2.6-1.4,3.5c-3.4,3.2-11.9,3.1-19.9-0.4l-4.1-2.1l-4.2,8.2l4.1,2.1
			c3.4,1.7,7,2.7,10.8,3.1c1.3,0.1,2.5,0.2,3.7,0.2c5.1,0.1,10.2-1.2,14.6-3.8l0.1-0.1c4-2.8,6-6.1,6.1-9.8c0.1-5.4-1-7-4-10.2
			l-0.2-0.2c-3.1-2.9-8.1-4.7-15.1-6.2h-0.3c-3.4-0.7-6.6-1.9-9.6-3.7c-1.2-0.7-1.9-2-1.8-3.4c0.1-1.3,0.6-2.5,1.4-3.4
			c4.9-5.4,16.6-1.5,19.3-0.2l4.1,2l4-8.3l-4.1-2c-3.2-1.5-6.7-2.5-10.2-2.8c-1.3-0.1-2.5-0.2-3.7-0.2
			C156.9,26.6,151.9,27.9,147.5,30.5"/>
		<g>
			<defs>
				<path id="SVGID_5_" d="M147.5,30.5l-0.2,0.1c-3.4,2.2-5.7,5.7-6.1,9.8c-0.4,3.6,1,7,4.1,10.2l0.2,0.2c2.9,2.8,8,5,15,6.5h0.3
					c5.2,1.1,8.9,2.5,10.8,4.2c0.6,0.8,1,1.8,0.9,2.8c0,1.3-0.5,2.6-1.4,3.5c-3.4,3.2-11.9,3.1-19.9-0.4l-4.1-2.1l-4.2,8.2l4.1,2.1
					c3.4,1.7,7,2.7,10.8,3.1c1.3,0.1,2.5,0.2,3.7,0.2c5.1,0.1,10.2-1.2,14.6-3.8l0.1-0.1c4-2.8,6-6.1,6.1-9.8c0.1-5.4-1-7-4-10.2
					l-0.2-0.2c-3.1-2.9-8.1-4.7-15.1-6.2h-0.3c-3.4-0.7-6.6-1.9-9.6-3.7c-1.2-0.7-1.9-2-1.8-3.4c0.1-1.3,0.6-2.5,1.4-3.4
					c4.9-5.4,16.6-1.5,19.3-0.2l4.1,2l4-8.3l-4.1-2c-3.2-1.5-6.7-2.5-10.2-2.8c-1.3-0.1-2.5-0.2-3.7-0.2
					C156.9,26.6,151.9,27.9,147.5,30.5"/>
			</defs>
			<use xlink:href="#SVGID_5_"  style="overflow:visible;fill:#FFFFFF;"/>
			<clipPath id="SVGID_6_">
				<use xlink:href="#SVGID_5_"  style="overflow:visible;"/>
			</clipPath>
			<g class="st3">
				
					<rect x="129.6" y="19.6" transform="matrix(0.8226 -0.5686 0.5686 0.8226 -1.4395 101.1995)" class="st0" width="63.7" height="66.6"/>
			</g>
		</g>
		<rect x="189.1" y="28.5" class="st0" width="9.2" height="50.6"/>
		<g>
			<defs>
				<rect id="SVGID_7_" x="189.1" y="28.5" width="9.2" height="50.6"/>
			</defs>
			<use xlink:href="#SVGID_7_"  style="overflow:visible;fill:#FFFFFF;"/>
			<clipPath id="SVGID_8_">
				<use xlink:href="#SVGID_7_"  style="overflow:visible;"/>
			</clipPath>
			<g class="st4">
				
					<rect x="175.5" y="30.3" transform="matrix(0.8226 -0.5686 0.5686 0.8226 3.7833 119.6531)" class="st0" width="36.4" height="46.9"/>
			</g>
		</g>
	</g>
</g>
</svg>
